<svg width="19" height="19" viewBox="0 0 19 19" fill="none" xmlns="http://www.w3.org/2000/svg">
<g clip-path="url(#clip0)">
<path d="M18.1349 9.49929C18.1349 4.25296 14.0753 0 9.0675 0C4.05964 0 0 4.25296 0 9.49929C0 14.2407 3.31585 18.1705 7.65067 18.8832V12.2452H5.3484V9.49929H7.65067V7.40646C7.65067 5.02571 9.0044 3.71065 11.0756 3.71065C12.0676 3.71065 13.1053 3.89618 13.1053 3.89618V6.23389H11.962C10.8356 6.23389 10.4843 6.96614 10.4843 7.71736V9.49929H12.9991L12.5971 12.2452H10.4843V18.8832C14.8191 18.1705 18.1349 14.2407 18.1349 9.49929Z" fill="#FA4B71"/>
</g>
<defs>
<clipPath id="clip0">
<rect width="18.1364" height="19" fill="white"/>
</clipPath>
</defs>
</svg>
