<svg width="19" height="19" viewBox="0 0 19 19" fill="none" xmlns="http://www.w3.org/2000/svg">
<g clip-path="url(#clip0)">
<path d="M9.56818 0C7.10466 0 6.7971 0.011875 5.82982 0.057C4.86406 0.1045 4.20662 0.263625 3.62852 0.49875C3.03229 0.741 2.52598 1.06638 2.02194 1.59442C1.5179 2.12246 1.20656 2.65208 0.97608 3.2775C0.751642 3.88313 0.598994 4.57188 0.554409 5.58363C0.509068 6.59696 0.5 6.91917 0.5 9.5C0.5 12.0808 0.511335 12.403 0.554409 13.4164C0.59975 14.4273 0.751642 15.1169 0.97608 15.7225C1.20732 16.3463 1.5179 16.8775 2.02194 17.4056C2.52598 17.9328 3.03153 18.2598 3.62852 18.5013C4.20737 18.7356 4.86482 18.8963 5.82982 18.943C6.7971 18.9905 7.10466 19 9.56818 19C12.0317 19 12.3393 18.9881 13.3065 18.943C14.2715 18.8955 14.9297 18.7356 15.5078 18.5013C16.1033 18.259 16.6104 17.9328 17.1144 17.4056C17.6177 16.8775 17.9298 16.3487 18.1603 15.7225C18.384 15.1169 18.5374 14.4273 18.582 13.4164C18.6273 12.403 18.6364 12.0808 18.6364 9.5C18.6364 6.91917 18.625 6.59696 18.582 5.58363C18.5366 4.57267 18.384 3.88233 18.1603 3.2775C17.929 2.65287 17.6177 2.12246 17.1144 1.59442C16.6104 1.06638 16.1056 0.740208 15.5078 0.49875C14.9297 0.263625 14.2715 0.103708 13.3065 0.057C12.3393 0.0095 12.0317 0 9.56818 0ZM9.56818 1.71C11.9886 1.71 12.2773 1.72267 13.2332 1.76621C14.1174 1.80975 14.5972 1.96333 14.9161 2.09475C15.3408 2.26654 15.6416 2.47238 15.9605 2.80408C16.2771 3.13658 16.4736 3.45246 16.6376 3.89737C16.7615 4.23146 16.9096 4.73417 16.9497 5.66042C16.9928 6.66267 17.0026 6.9635 17.0026 9.5C17.0026 12.0365 16.9912 12.3381 16.9467 13.3396C16.9006 14.2658 16.7532 14.7685 16.6285 15.1026C16.4592 15.5475 16.2665 15.8626 15.9492 16.1967C15.6325 16.5284 15.3265 16.7342 14.9063 16.906C14.5889 17.0359 14.1015 17.191 13.2174 17.233C12.2546 17.2781 11.9713 17.2884 9.54551 17.2884C7.11902 17.2884 6.83564 17.2765 5.87365 17.2298C4.98875 17.1815 4.50134 17.0272 4.18395 16.8965C3.75397 16.7192 3.45849 16.5173 3.14186 16.1848C2.82372 15.8531 2.62044 15.5325 2.46175 15.0923C2.33706 14.7598 2.19046 14.2492 2.14436 13.323C2.11036 12.3255 2.09827 12.0175 2.09827 9.48812C2.09827 6.95796 2.11036 6.64921 2.14436 5.63983C2.19046 4.71358 2.33706 4.20375 2.46175 3.87125C2.62044 3.42 2.82372 3.11125 3.14186 2.77796C3.45849 2.44625 3.75397 2.2325 4.18395 2.06704C4.50134 1.93563 4.97817 1.78125 5.86232 1.73375C6.82581 1.69813 7.10919 1.68625 9.53418 1.68625L9.56818 1.71ZM9.56818 4.62175C6.99509 4.62175 4.91167 6.80675 4.91167 9.5C4.91167 12.1956 6.99735 14.3783 9.56818 14.3783C12.1413 14.3783 14.2247 12.1933 14.2247 9.5C14.2247 6.80438 12.139 4.62175 9.56818 4.62175ZM9.56818 12.6667C7.89812 12.6667 6.54545 11.2496 6.54545 9.5C6.54545 7.75042 7.89812 6.33333 9.56818 6.33333C11.2382 6.33333 12.5909 7.75042 12.5909 9.5C12.5909 11.2496 11.2382 12.6667 9.56818 12.6667ZM15.4973 4.42938C15.4973 5.05875 15.0091 5.56938 14.4091 5.56938C13.8083 5.56938 13.3209 5.05796 13.3209 4.42938C13.3209 3.80079 13.8091 3.29017 14.4091 3.29017C15.0083 3.28938 15.4973 3.80079 15.4973 4.42938Z" fill="#FA4B71"/>
</g>
<defs>
<clipPath id="clip0">
<rect width="18.1364" height="19" fill="white" transform="translate(0.5)"/>
</clipPath>
</defs>
</svg>
