<svg width="19" height="11" viewBox="0 0 19 11" fill="none" xmlns="http://www.w3.org/2000/svg">
<path d="M0.5 11C0.223858 11 0 10.7761 0 10.5C0 10.2239 0.223858 10 0.5 10H18.5C18.7761 10 19 10.2239 19 10.5C19 10.7761 18.7761 11 18.5 11H0.5ZM0.5 6C0.223858 6 0 5.77614 0 5.5C0 5.22386 0.223858 5 0.5 5H18.5C18.7761 5 19 5.22386 19 5.5C19 5.77614 18.7761 6 18.5 6H0.5ZM0.5 1C0.223858 1 0 0.776142 0 0.5C0 0.223858 0.223858 0 0.5 0H18.5C18.7761 0 19 0.223858 19 0.5C19 0.776142 18.7761 1 18.5 1H0.5Z" fill="#AF6172"/>
</svg>
