<svg width="336" height="44" viewBox="0 0 336 44" fill="none" xmlns="http://www.w3.org/2000/svg">
<line x1="4.37114e-08" y1="15.5" x2="143" y2="15.5" stroke="#FEFEFE"/>
<line x1="193" y1="15.5" x2="336" y2="15.5" stroke="#FEFEFE"/>
<g clip-path="url(#clip0)">
<path d="M174.282 16.3387L166.874 23.606L172.131 28.7687L181.034 20.0347C182.062 19.0007 182.631 17.622 182.631 16.148C182.631 14.674 182.062 13.2954 181.034 12.2614C179.707 10.934 177.804 10.3914 175.996 10.7947C176.061 11.1687 176.105 11.55 176.105 11.9387C176.098 13.596 175.449 15.1654 174.282 16.3387Z" fill="#FEFEFE"/>
<path d="M164.869 24.552L173.772 15.818C174.8 14.784 175.369 13.398 175.369 11.9313C175.369 11.484 175.31 11.044 175.208 10.626C175.208 10.6187 175.201 10.6187 175.201 10.6113C175.201 10.604 175.201 10.5967 175.201 10.5893C174.96 9.636 174.479 8.756 173.772 8.03734C171.643 5.896 168.172 5.896 166.035 8.03734L165.131 8.94667C164.985 9.09334 164.759 9.09334 164.614 8.94667L163.709 8.03734C162.645 6.96667 161.245 6.43134 159.845 6.43134C158.445 6.43134 157.045 6.96667 155.98 8.03734C154.945 9.07867 154.376 10.4573 154.376 11.924C154.376 13.3907 154.945 14.7767 155.98 15.8107L164.869 24.552Z" fill="#FEFEFE"/>
<path d="M154.108 46.3492C154.08 46.7317 153.939 47.0328 153.683 47.2526C153.429 47.4723 153.094 47.5822 152.677 47.5822C152.222 47.5822 151.863 47.4292 151.601 47.1232C151.34 46.8156 151.21 46.394 151.21 45.8585V45.6412C151.21 45.2994 151.27 44.9983 151.391 44.7379C151.511 44.4775 151.683 44.2781 151.906 44.1398C152.13 43.9998 152.391 43.9298 152.687 43.9298C153.097 43.9298 153.428 44.0397 153.678 44.2594C153.929 44.4791 154.074 44.7876 154.113 45.1847H153.38C153.362 44.9552 153.298 44.7892 153.188 44.6866C153.078 44.5825 152.912 44.5304 152.687 44.5304C152.443 44.5304 152.26 44.6183 152.138 44.7941C152.017 44.9682 151.955 45.2392 151.952 45.6071V45.8756C151.952 46.2597 152.01 46.5405 152.125 46.7179C152.243 46.8953 152.427 46.984 152.677 46.984C152.903 46.984 153.072 46.9327 153.183 46.8302C153.295 46.726 153.359 46.5657 153.375 46.3492H154.108ZM156.027 45.5533C155.931 45.5403 155.846 45.5338 155.773 45.5338C155.506 45.5338 155.331 45.6241 155.248 45.8048V47.5333H154.542V44.8917H155.209L155.229 45.2067C155.37 44.9642 155.566 44.8429 155.817 44.8429C155.895 44.8429 155.968 44.8535 156.037 44.8746L156.027 45.5533ZM157.536 47.5822C157.148 47.5822 156.833 47.4633 156.588 47.2257C156.346 46.9881 156.225 46.6715 156.225 46.276V46.2076C156.225 45.9423 156.276 45.7055 156.378 45.4972C156.481 45.2872 156.626 45.1261 156.813 45.0138C157.002 44.8999 157.217 44.8429 157.458 44.8429C157.819 44.8429 158.103 44.9568 158.31 45.1847C158.518 45.4126 158.622 45.7356 158.622 46.1539V46.442H156.94C156.963 46.6145 157.031 46.7529 157.145 46.8571C157.261 46.9612 157.406 47.0133 157.582 47.0133C157.854 47.0133 158.066 46.9148 158.219 46.7179L158.566 47.1061C158.46 47.2558 158.317 47.373 158.136 47.4576C157.956 47.5406 157.755 47.5822 157.536 47.5822ZM157.455 45.4142C157.315 45.4142 157.201 45.4614 157.113 45.5558C157.027 45.6502 156.972 45.7853 156.947 45.9611H157.929V45.9049C157.925 45.7487 157.883 45.6282 157.802 45.5436C157.72 45.4573 157.605 45.4142 157.455 45.4142ZM160.556 47.5333C160.523 47.4698 160.5 47.3909 160.485 47.2965C160.314 47.4869 160.092 47.5822 159.818 47.5822C159.56 47.5822 159.345 47.5073 159.174 47.3575C159.005 47.2078 158.92 47.019 158.92 46.7911C158.92 46.5112 159.023 46.2963 159.23 46.1466C159.438 45.9969 159.739 45.9212 160.131 45.9196H160.456V45.7682C160.456 45.6461 160.424 45.5485 160.36 45.4752C160.299 45.402 160.2 45.3654 160.065 45.3654C159.946 45.3654 159.853 45.3938 159.784 45.4508C159.717 45.5078 159.684 45.5859 159.684 45.6852H158.979C158.979 45.5322 159.026 45.3906 159.12 45.2604C159.215 45.1302 159.348 45.0284 159.521 44.9552C159.693 44.8803 159.887 44.8429 160.102 44.8429C160.427 44.8429 160.685 44.9251 160.875 45.0895C161.068 45.2522 161.164 45.4817 161.164 45.778V46.923C161.165 47.1736 161.2 47.3632 161.269 47.4918V47.5333H160.556ZM159.972 47.0426C160.076 47.0426 160.172 47.0198 160.26 46.9742C160.348 46.927 160.413 46.8644 160.456 46.7863V46.3322H160.192C159.839 46.3322 159.651 46.4542 159.628 46.6984L159.625 46.7399C159.625 46.8278 159.656 46.9002 159.718 46.9572C159.78 47.0141 159.865 47.0426 159.972 47.0426ZM162.55 44.2423V44.8917H163.002V45.4093H162.55V46.7277C162.55 46.8253 162.569 46.8953 162.606 46.9376C162.644 46.9799 162.715 47.0011 162.821 47.0011C162.899 47.0011 162.969 46.9954 163.029 46.984V47.5187C162.89 47.561 162.748 47.5822 162.602 47.5822C162.107 47.5822 161.854 47.3323 161.845 46.8326V45.4093H161.459V44.8917H161.845V44.2423H162.55ZM164.611 47.5822C164.223 47.5822 163.908 47.4633 163.664 47.2257C163.421 46.9881 163.3 46.6715 163.3 46.276V46.2076C163.3 45.9423 163.351 45.7055 163.454 45.4972C163.556 45.2872 163.701 45.1261 163.888 45.0138C164.077 44.8999 164.292 44.8429 164.533 44.8429C164.894 44.8429 165.178 44.9568 165.385 45.1847C165.593 45.4126 165.697 45.7356 165.697 46.1539V46.442H164.015C164.038 46.6145 164.106 46.7529 164.22 46.8571C164.336 46.9612 164.481 47.0133 164.657 47.0133C164.929 47.0133 165.141 46.9148 165.294 46.7179L165.641 47.1061C165.535 47.2558 165.392 47.373 165.211 47.4576C165.031 47.5406 164.831 47.5822 164.611 47.5822ZM164.53 45.4142C164.39 45.4142 164.276 45.4614 164.188 45.5558C164.102 45.6502 164.047 45.7853 164.022 45.9611H165.004V45.9049C165.001 45.7487 164.958 45.6282 164.877 45.5436C164.796 45.4573 164.68 45.4142 164.53 45.4142ZM165.99 46.193C165.99 45.7812 166.082 45.4532 166.266 45.2091C166.452 44.965 166.705 44.8429 167.025 44.8429C167.283 44.8429 167.495 44.9389 167.663 45.131V43.7833H168.371V47.5333H167.733L167.699 47.2526C167.523 47.4723 167.297 47.5822 167.021 47.5822C166.71 47.5822 166.46 47.4601 166.271 47.2159C166.084 46.9702 165.99 46.6292 165.99 46.193ZM166.696 46.2443C166.696 46.4917 166.739 46.6813 166.825 46.8131C166.911 46.9449 167.037 47.0109 167.201 47.0109C167.419 47.0109 167.573 46.9189 167.663 46.735V45.6925C167.575 45.5086 167.423 45.4166 167.206 45.4166C166.866 45.4166 166.696 45.6925 166.696 46.2443ZM172.543 46.2369C172.543 46.6601 172.453 46.9905 172.272 47.2281C172.091 47.4642 171.839 47.5822 171.515 47.5822C171.229 47.5822 171 47.4723 170.829 47.2526L170.797 47.5333H170.163V43.7833H170.868V45.1285C171.031 44.9381 171.245 44.8429 171.51 44.8429C171.833 44.8429 172.085 44.9617 172.267 45.1993C172.451 45.4353 172.543 45.7682 172.543 46.1979V46.2369ZM171.837 46.1857C171.837 45.9187 171.795 45.7242 171.71 45.6022C171.626 45.4785 171.5 45.4166 171.332 45.4166C171.107 45.4166 170.953 45.5086 170.868 45.6925V46.735C170.954 46.9205 171.111 47.0133 171.337 47.0133C171.565 47.0133 171.715 46.901 171.786 46.6764C171.82 46.569 171.837 46.4054 171.837 46.1857ZM173.937 46.5348L174.425 44.8917H175.182L174.12 47.9435L174.062 48.0826C173.904 48.4277 173.643 48.6002 173.28 48.6002C173.178 48.6002 173.074 48.5848 172.968 48.5538V48.0192L173.075 48.0216C173.209 48.0216 173.308 48.0013 173.373 47.9606C173.44 47.9199 173.492 47.8523 173.529 47.7579L173.612 47.5406L172.687 44.8917H173.446L173.937 46.5348ZM153.651 52.2369C153.651 52.6601 153.561 52.9905 153.38 53.2281C153.2 53.4642 152.947 53.5822 152.624 53.5822C152.337 53.5822 152.108 53.4723 151.938 53.2526L151.906 53.5333H151.271V49.7833H151.977V51.1285C152.139 50.9381 152.353 50.8429 152.619 50.8429C152.941 50.8429 153.193 50.9617 153.375 51.1993C153.559 51.4353 153.651 51.7682 153.651 52.1979V52.2369ZM152.946 52.1857C152.946 51.9187 152.903 51.7242 152.819 51.6022C152.734 51.4785 152.608 51.4166 152.44 51.4166C152.216 51.4166 152.061 51.5086 151.977 51.6925V52.735C152.063 52.9205 152.219 53.0133 152.445 53.0133C152.673 53.0133 152.823 52.901 152.895 52.6764C152.929 52.569 152.946 52.4054 152.946 52.1857ZM155.67 53.2648C155.496 53.4764 155.255 53.5822 154.948 53.5822C154.665 53.5822 154.448 53.5008 154.298 53.338C154.15 53.1753 154.075 52.9368 154.071 52.6227V50.8917H154.777V52.5983C154.777 52.8733 154.902 53.0109 155.153 53.0109C155.392 53.0109 155.556 52.9279 155.646 52.7618V50.8917H156.354V53.5333H155.69L155.67 53.2648ZM158.317 52.8033C158.317 52.7171 158.274 52.6495 158.188 52.6007C158.103 52.5503 157.966 52.5055 157.777 52.4664C157.149 52.3346 156.835 52.0677 156.835 51.6656C156.835 51.4313 156.932 51.236 157.125 51.0797C157.321 50.9218 157.576 50.8429 157.89 50.8429C158.225 50.8429 158.493 50.9218 158.693 51.0797C158.895 51.2376 158.996 51.4427 158.996 51.6949H158.29C158.29 51.594 158.257 51.511 158.192 51.4459C158.127 51.3792 158.026 51.3458 157.887 51.3458C157.768 51.3458 157.676 51.3727 157.611 51.4264C157.546 51.4801 157.514 51.5485 157.514 51.6315C157.514 51.7096 157.55 51.7731 157.624 51.8219C157.698 51.8691 157.824 51.9106 158 51.9464C158.175 51.9806 158.323 52.0197 158.444 52.0636C158.817 52.2003 159.003 52.4371 159.003 52.774C159.003 53.0149 158.9 53.2102 158.693 53.36C158.486 53.5081 158.219 53.5822 157.892 53.5822C157.671 53.5822 157.474 53.5431 157.301 53.465C157.13 53.3852 156.996 53.277 156.898 53.1403C156.801 53.0019 156.752 52.853 156.752 52.6935H157.421C157.427 52.8188 157.474 52.9148 157.56 52.9816C157.646 53.0483 157.762 53.0817 157.907 53.0817C158.042 53.0817 158.144 53.0564 158.212 53.006C158.282 52.9539 158.317 52.8864 158.317 52.8033ZM160.204 53.5333H159.496V50.8917H160.204V53.5333ZM159.455 50.2081C159.455 50.1023 159.49 50.0153 159.56 49.9469C159.631 49.8785 159.728 49.8444 159.85 49.8444C159.971 49.8444 160.067 49.8785 160.138 49.9469C160.21 50.0153 160.246 50.1023 160.246 50.2081C160.246 50.3156 160.209 50.4034 160.136 50.4718C160.064 50.5402 159.969 50.5743 159.85 50.5743C159.731 50.5743 159.635 50.5402 159.562 50.4718C159.49 50.4034 159.455 50.3156 159.455 50.2081ZM161.437 50.8917L161.459 51.1969C161.648 50.9609 161.901 50.8429 162.218 50.8429C162.498 50.8429 162.707 50.9251 162.843 51.0895C162.98 51.2539 163.05 51.4996 163.053 51.8268V53.5333H162.348V51.8439C162.348 51.6941 162.315 51.5859 162.25 51.5192C162.185 51.4508 162.077 51.4166 161.925 51.4166C161.727 51.4166 161.578 51.5013 161.479 51.6705V53.5333H160.773V50.8917H161.437ZM164.806 53.5822C164.419 53.5822 164.103 53.4633 163.859 53.2257C163.616 52.9881 163.495 52.6715 163.495 52.276V52.2076C163.495 51.9423 163.546 51.7055 163.649 51.4972C163.751 51.2872 163.896 51.1261 164.083 51.0138C164.272 50.8999 164.487 50.8429 164.728 50.8429C165.089 50.8429 165.373 50.9568 165.58 51.1847C165.788 51.4126 165.893 51.7356 165.893 52.1539V52.442H164.21C164.233 52.6145 164.302 52.7529 164.416 52.8571C164.531 52.9612 164.677 53.0133 164.853 53.0133C165.124 53.0133 165.337 52.9148 165.49 52.7179L165.836 53.1061C165.731 53.2558 165.587 53.373 165.407 53.4576C165.226 53.5406 165.026 53.5822 164.806 53.5822ZM164.726 51.4142C164.586 51.4142 164.472 51.4614 164.384 51.5558C164.298 51.6502 164.242 51.7853 164.218 51.9611H165.199V51.9049C165.196 51.7487 165.154 51.6282 165.072 51.5436C164.991 51.4573 164.875 51.4142 164.726 51.4142ZM167.726 52.8033C167.726 52.7171 167.683 52.6495 167.597 52.6007C167.512 52.5503 167.375 52.5055 167.187 52.4664C166.558 52.3346 166.244 52.0677 166.244 51.6656C166.244 51.4313 166.341 51.236 166.535 51.0797C166.73 50.9218 166.985 50.8429 167.299 50.8429C167.634 50.8429 167.902 50.9218 168.102 51.0797C168.304 51.2376 168.405 51.4427 168.405 51.6949H167.699C167.699 51.594 167.667 51.511 167.602 51.4459C167.536 51.3792 167.435 51.3458 167.296 51.3458C167.178 51.3458 167.086 51.3727 167.021 51.4264C166.955 51.4801 166.923 51.5485 166.923 51.6315C166.923 51.7096 166.959 51.7731 167.033 51.8219C167.108 51.8691 167.233 51.9106 167.409 51.9464C167.584 51.9806 167.733 52.0197 167.853 52.0636C168.226 52.2003 168.412 52.4371 168.412 52.774C168.412 53.0149 168.309 53.2102 168.102 53.36C167.895 53.5081 167.628 53.5822 167.301 53.5822C167.08 53.5822 166.883 53.5431 166.71 53.465C166.54 53.3852 166.405 53.277 166.308 53.1403C166.21 53.0019 166.161 52.853 166.161 52.6935H166.83C166.837 52.8188 166.883 52.9148 166.969 52.9816C167.056 53.0483 167.171 53.0817 167.316 53.0817C167.451 53.0817 167.553 53.0564 167.621 53.006C167.691 52.9539 167.726 52.8864 167.726 52.8033ZM170.299 52.8033C170.299 52.7171 170.256 52.6495 170.17 52.6007C170.085 52.5503 169.949 52.5055 169.76 52.4664C169.132 52.3346 168.817 52.0677 168.817 51.6656C168.817 51.4313 168.914 51.236 169.108 51.0797C169.303 50.9218 169.558 50.8429 169.872 50.8429C170.207 50.8429 170.475 50.9218 170.675 51.0797C170.877 51.2376 170.978 51.4427 170.978 51.6949H170.272C170.272 51.594 170.24 51.511 170.175 51.4459C170.11 51.3792 170.008 51.3458 169.87 51.3458C169.751 51.3458 169.659 51.3727 169.594 51.4264C169.529 51.4801 169.496 51.5485 169.496 51.6315C169.496 51.7096 169.533 51.7731 169.606 51.8219C169.681 51.8691 169.806 51.9106 169.982 51.9464C170.158 51.9806 170.306 52.0197 170.426 52.0636C170.799 52.2003 170.985 52.4371 170.985 52.774C170.985 53.0149 170.882 53.2102 170.675 53.36C170.469 53.5081 170.202 53.5822 169.875 53.5822C169.653 53.5822 169.456 53.5431 169.284 53.465C169.113 53.3852 168.979 53.277 168.881 53.1403C168.783 53.0019 168.734 52.853 168.734 52.6935H169.403C169.41 52.8188 169.456 52.9148 169.542 52.9816C169.629 53.0483 169.744 53.0817 169.889 53.0817C170.024 53.0817 170.126 53.0564 170.194 53.006C170.264 52.9539 170.299 52.8864 170.299 52.8033ZM172.187 53.5333H171.479V50.8917H172.187V53.5333ZM171.437 50.2081C171.437 50.1023 171.472 50.0153 171.542 49.9469C171.614 49.8785 171.71 49.8444 171.833 49.8444C171.953 49.8444 172.049 49.8785 172.121 49.9469C172.192 50.0153 172.228 50.1023 172.228 50.2081C172.228 50.3156 172.191 50.4034 172.118 50.4718C172.047 50.5402 171.951 50.5743 171.833 50.5743C171.714 50.5743 171.618 50.5402 171.544 50.4718C171.473 50.4034 171.437 50.3156 171.437 50.2081ZM173.869 53.0133C173.999 53.0133 174.105 52.9775 174.186 52.9059C174.267 52.8343 174.31 52.7391 174.313 52.6202H174.975C174.973 52.7993 174.924 52.9637 174.828 53.1134C174.732 53.2615 174.6 53.3771 174.433 53.4601C174.267 53.5415 174.083 53.5822 173.881 53.5822C173.503 53.5822 173.205 53.4625 172.987 53.2233C172.769 52.9824 172.66 52.6503 172.66 52.2272V52.1808C172.66 51.7739 172.768 51.4492 172.985 51.2067C173.201 50.9642 173.498 50.8429 173.876 50.8429C174.206 50.8429 174.471 50.9373 174.669 51.1261C174.87 51.3133 174.971 51.5631 174.975 51.8756H174.313C174.31 51.7389 174.267 51.6282 174.186 51.5436C174.105 51.4573 173.997 51.4142 173.864 51.4142C173.699 51.4142 173.575 51.4744 173.49 51.5948C173.407 51.7137 173.366 51.9073 173.366 52.1759V52.2491C173.366 52.521 173.407 52.7163 173.49 52.8351C173.573 52.9539 173.699 53.0133 173.869 53.0133ZM175.268 52.1881C175.268 51.9261 175.318 51.6925 175.419 51.4874C175.52 51.2823 175.665 51.1237 175.854 51.0114C176.044 50.899 176.264 50.8429 176.515 50.8429C176.872 50.8429 177.162 50.9519 177.387 51.17C177.613 51.3881 177.739 51.6844 177.765 52.0587L177.77 52.2394C177.77 52.6447 177.657 52.9702 177.431 53.2159C177.204 53.4601 176.901 53.5822 176.52 53.5822C176.139 53.5822 175.835 53.4601 175.607 53.2159C175.381 52.9718 175.268 52.6398 175.268 52.2198V52.1881ZM175.973 52.2394C175.973 52.49 176.02 52.6821 176.115 52.8156C176.209 52.9474 176.344 53.0133 176.52 53.0133C176.691 53.0133 176.824 52.9482 176.92 52.818C177.016 52.6862 177.064 52.4762 177.064 52.1881C177.064 51.9423 177.016 51.7519 176.92 51.6168C176.824 51.4817 176.689 51.4142 176.515 51.4142C176.343 51.4142 176.209 51.4817 176.115 51.6168C176.02 51.7503 175.973 51.9578 175.973 52.2394ZM178.854 50.8917L178.876 51.1969C179.065 50.9609 179.318 50.8429 179.635 50.8429C179.915 50.8429 180.124 50.9251 180.26 51.0895C180.397 51.2539 180.467 51.4996 180.47 51.8268V53.5333H179.765V51.8439C179.765 51.6941 179.732 51.5859 179.667 51.5192C179.602 51.4508 179.494 51.4166 179.342 51.4166C179.144 51.4166 178.995 51.5013 178.896 51.6705V53.5333H178.19V50.8917H178.854ZM182.438 52.8033C182.438 52.7171 182.395 52.6495 182.309 52.6007C182.224 52.5503 182.087 52.5055 181.898 52.4664C181.27 52.3346 180.956 52.0677 180.956 51.6656C180.956 51.4313 181.053 51.236 181.247 51.0797C181.442 50.9218 181.697 50.8429 182.011 50.8429C182.346 50.8429 182.614 50.9218 182.814 51.0797C183.016 51.2376 183.117 51.4427 183.117 51.6949H182.411C182.411 51.594 182.379 51.511 182.313 51.4459C182.248 51.3792 182.147 51.3458 182.008 51.3458C181.889 51.3458 181.798 51.3727 181.732 51.4264C181.667 51.4801 181.635 51.5485 181.635 51.6315C181.635 51.7096 181.671 51.7731 181.745 51.8219C181.819 51.8691 181.945 51.9106 182.121 51.9464C182.296 51.9806 182.444 52.0197 182.565 52.0636C182.938 52.2003 183.124 52.4371 183.124 52.774C183.124 53.0149 183.021 53.2102 182.814 53.36C182.607 53.5081 182.34 53.5822 182.013 53.5822C181.792 53.5822 181.595 53.5431 181.422 53.465C181.251 53.3852 181.117 53.277 181.02 53.1403C180.922 53.0019 180.873 52.853 180.873 52.6935H181.542C181.549 52.8188 181.595 52.9148 181.681 52.9816C181.767 53.0483 181.883 53.0817 182.028 53.0817C182.163 53.0817 182.265 53.0564 182.333 53.006C182.403 52.9539 182.438 52.8864 182.438 52.8033ZM185.265 53.5333H184.56V50.8136L183.717 51.0748V50.5011L185.189 49.9738H185.265V53.5333ZM187.14 51.4435H187.516C187.695 51.4435 187.828 51.3987 187.914 51.3092C188 51.2197 188.043 51.1009 188.043 50.9528C188.043 50.8095 188 50.698 187.914 50.6183C187.829 50.5385 187.712 50.4987 187.562 50.4987C187.427 50.4987 187.314 50.5361 187.223 50.611C187.132 50.6842 187.086 50.7802 187.086 50.899H186.381C186.381 50.7135 186.431 50.5475 186.53 50.401C186.631 50.2529 186.771 50.1373 186.95 50.0543C187.13 49.9713 187.329 49.9298 187.545 49.9298C187.921 49.9298 188.216 50.0201 188.429 50.2008C188.642 50.3798 188.749 50.6272 188.749 50.943C188.749 51.1058 188.699 51.2555 188.6 51.3922C188.501 51.5289 188.371 51.6339 188.209 51.7072C188.41 51.7788 188.559 51.8862 188.656 52.0294C188.756 52.1726 188.805 52.3419 188.805 52.5372C188.805 52.853 188.69 53.1061 188.458 53.2965C188.229 53.4869 187.925 53.5822 187.545 53.5822C187.191 53.5822 186.9 53.4886 186.674 53.3014C186.449 53.1142 186.337 52.8668 186.337 52.5592H187.042C187.042 52.6927 187.092 52.8017 187.191 52.8864C187.292 52.971 187.416 53.0133 187.562 53.0133C187.73 53.0133 187.861 52.9694 187.956 52.8815C188.052 52.792 188.1 52.674 188.1 52.5275C188.1 52.1726 187.904 51.9952 187.514 51.9952H187.14V51.4435Z" fill="#FEFEFE"/>
</g>
<defs>
<clipPath id="clip0">
<rect width="35" height="44" fill="white" transform="translate(151)"/>
</clipPath>
</defs>
</svg>
