<svg width="20" height="19" viewBox="0 0 20 19" fill="none" xmlns="http://www.w3.org/2000/svg">
<g clip-path="url(#clip0)">
<path d="M19.7818 3.61713C19.0811 3.92508 18.333 4.13488 17.5453 4.23067C18.3481 3.74696 18.9655 2.98458 19.2577 2.07496C18.5048 2.51433 17.6704 2.83417 16.7821 3.01229C16.0728 2.25308 15.0618 1.77808 13.9393 1.77808C11.7883 1.77808 10.0443 3.52213 10.0443 5.67071C10.0443 5.97946 10.0799 6.27633 10.1448 6.56054C6.90688 6.40775 4.03709 4.85292 2.11651 2.50246C1.77847 3.07404 1.58926 3.73825 1.58926 4.46183C1.58926 5.81558 2.27801 7.00546 3.32143 7.7045C2.68255 7.68392 2.08168 7.50817 1.55759 7.21683V7.26513C1.55759 9.15325 2.89788 10.7279 4.68151 11.0865C4.35455 11.1744 4.00938 11.2219 3.65551 11.2219C3.40693 11.2219 3.16863 11.1981 2.93034 11.1538C3.42988 12.6999 4.86597 13.8273 6.57518 13.8589C5.24518 14.9031 3.55972 15.5254 1.74443 15.5254C1.43568 15.5254 1.12772 15.5072 0.818176 15.4723C2.55113 16.5759 4.59284 17.2211 6.8008 17.2211C13.9686 17.2211 17.8833 11.2868 17.8833 6.14888C17.8833 5.98342 17.8833 5.81638 17.8715 5.65013C18.6323 5.10467 19.2965 4.41513 19.819 3.63296L19.7818 3.61713Z" fill="#F88DA4"/>
</g>
<defs>
<clipPath id="clip0">
<rect width="19" height="19" fill="white" transform="translate(0.818176)"/>
</clipPath>
</defs>
</svg>
